<?xml version="1.0" standalone="no"?>
<!DOCTYPE svg PUBLIC "-//W3C//DTD SVG 20010904//EN"
 "http://www.w3.org/TR/2001/REC-SVG-20010904/DTD/svg10.dtd">
<svg version="1.0" xmlns="http://www.w3.org/2000/svg"
 width="700.000000pt" height="700.000000pt" viewBox="0 0 700.000000 700.000000"
 preserveAspectRatio="xMidYMid meet">
<metadata>
Created by potrace 1.14, written by Peter Selinger 2001-2017
</metadata>
<g transform="translate(0.000000,700.000000) scale(0.100000,-0.100000)"
fill="#000000" stroke="none">
<path d="M2035 6989 c-99 -15 -257 -41 -274 -44 -245 -54 -564 -200 -720 -330
-279 -232 -426 -423 -558 -725 -82 -188 -156 -447 -179 -620 -2 -19 -6 -46 -9
-60 -25 -127 -37 -498 -21 -683 21 -239 83 -472 176 -662 70 -144 256 -431
320 -495 3 -3 23 -27 44 -55 84 -106 380 -388 530 -505 10 -8 33 -27 50 -41
67 -55 278 -210 416 -305 80 -55 169 -117 197 -137 29 -20 57 -37 62 -37 5 0
11 -4 13 -8 2 -5 41 -35 88 -67 180 -124 498 -354 595 -431 17 -14 35 -28 40
-32 10 -8 262 -196 400 -297 39 -29 151 -112 250 -185 376 -278 601 -464 796
-659 240 -240 367 -430 382 -571 l3 -35 621 -3 621 -2 -3 167 c-2 93 -6 179
-9 193 -37 167 -70 256 -139 375 -87 150 -176 255 -441 520 -220 220 -409 391
-566 512 -8 6 -53 42 -100 80 -47 38 -137 109 -200 158 -63 50 -117 93 -120
96 -8 10 -531 399 -624 464 -454 318 -973 709 -1226 924 -275 234 -556 519
-684 694 -71 96 -148 248 -177 347 -37 128 -33 410 7 615 76 379 263 545 619
548 182 1 281 -37 395 -151 151 -152 219 -344 340 -955 38 -193 68 -298 114
-404 166 -376 477 -686 891 -888 185 -91 423 -169 580 -191 28 -3 59 -8 70
-10 112 -21 450 -21 560 0 19 3 104 19 115 21 70 11 261 76 355 120 382 177
682 481 871 880 73 155 139 361 169 522 2 16 7 39 10 53 19 92 29 240 29 420
0 206 -11 312 -49 460 -28 110 -65 211 -120 328 -200 423 -562 762 -1015 950
-121 51 -273 98 -375 116 -44 8 -96 18 -115 22 -51 11 -2934 14 -3005 3z
m2905 -1293 c130 -20 241 -76 330 -166 155 -156 206 -406 135 -670 -9 -30 -17
-64 -20 -75 -2 -11 -26 -63 -51 -115 -102 -206 -240 -282 -519 -284 -180 -1
-239 10 -351 67 -115 59 -218 212 -288 432 -22 71 -70 298 -112 530 -7 44 -16
94 -19 110 -21 118 -25 141 -25 159 0 21 2 21 437 20 241 -1 458 -4 483 -8z"/>
</g>
</svg>
